<?xml version="1.0" encoding="UTF-8"?>
<svg xmlns="http://www.w3.org/2000/svg" viewBox="0 0 2300 413" width="100%" height="100%" fill="none">
  <!-- Jatiya Smriti Soudho (National Martyrs Memorial) -->
  <g id="smriti-soudho">
    <rect x="140" y="394" width="620" height="4" fill="#e3e7e3" stroke="#929a96" stroke-width="1.4" />
    <rect x="125" y="397" width="650" height="2" fill="#929a96" stroke="none" />
    <polygon points="450,340 450,394 165,394" fill="#e3e7e3" stroke="#929a96" stroke-width="1.4" stroke-linejoin="round" />
    <polygon points="450,340 450,394 735,394" fill="#e3e7e3" stroke="#929a96" stroke-width="1.4" stroke-linejoin="round" />
    <line x1="212.5" y1="385" x2="450" y2="385" stroke="#929a96" stroke-width="1.2" />
    <line x1="450" y1="385" x2="687.5" y2="385" stroke="#929a96" stroke-width="1.2" />
    <polygon points="450,270 450,394 235,394" fill="#e3e7e3" stroke="#929a96" stroke-width="1.4" stroke-linejoin="round" />
    <polygon points="450,270 450,394 665,394" fill="#e3e7e3" stroke="#929a96" stroke-width="1.4" stroke-linejoin="round" />
    <line x1="372.0" y1="315" x2="450" y2="315" stroke="#929a96" stroke-width="1.2" />
    <line x1="450" y1="315" x2="528.0" y2="315" stroke="#929a96" stroke-width="1.2" />
    <line x1="259.3" y1="380" x2="450" y2="380" stroke="#929a96" stroke-width="1.2" />
    <line x1="450" y1="380" x2="640.7" y2="380" stroke="#929a96" stroke-width="1.2" />
    <polygon points="450,210 450,394 295,394" fill="#e3e7e3" stroke="#929a96" stroke-width="1.4" stroke-linejoin="round" />
    <polygon points="450,210 450,394 605,394" fill="#e3e7e3" stroke="#929a96" stroke-width="1.4" stroke-linejoin="round" />
    <line x1="416.3" y1="250" x2="450" y2="250" stroke="#929a96" stroke-width="1.2" />
    <line x1="450" y1="250" x2="483.7" y2="250" stroke="#929a96" stroke-width="1.2" />
    <line x1="365.8" y1="310" x2="450" y2="310" stroke="#929a96" stroke-width="1.2" />
    <line x1="450" y1="310" x2="534.2" y2="310" stroke="#929a96" stroke-width="1.2" />
    <line x1="311.0" y1="375" x2="450" y2="375" stroke="#929a96" stroke-width="1.2" />
    <line x1="450" y1="375" x2="589.0" y2="375" stroke="#929a96" stroke-width="1.2" />
    <polygon points="450,160 450,394 345,394" fill="#e3e7e3" stroke="#929a96" stroke-width="1.4" stroke-linejoin="round" />
    <polygon points="450,160 450,394 555,394" fill="#e3e7e3" stroke="#929a96" stroke-width="1.4" stroke-linejoin="round" />
    <line x1="434.3" y1="195" x2="450" y2="195" stroke="#929a96" stroke-width="1.2" />
    <line x1="450" y1="195" x2="465.7" y2="195" stroke="#929a96" stroke-width="1.2" />
    <line x1="411.9" y1="245" x2="450" y2="245" stroke="#929a96" stroke-width="1.2" />
    <line x1="450" y1="245" x2="488.1" y2="245" stroke="#929a96" stroke-width="1.2" />
    <line x1="387.2" y1="300" x2="450" y2="300" stroke="#929a96" stroke-width="1.2" />
    <line x1="450" y1="300" x2="512.8" y2="300" stroke="#929a96" stroke-width="1.2" />
    <line x1="360.3" y1="360" x2="450" y2="360" stroke="#929a96" stroke-width="1.2" />
    <line x1="450" y1="360" x2="539.7" y2="360" stroke="#929a96" stroke-width="1.2" />
    <polygon points="450,120 450,394 385,394" fill="#e3e7e3" stroke="#929a96" stroke-width="1.4" stroke-linejoin="round" />
    <polygon points="450,120 450,394 515,394" fill="#e3e7e3" stroke="#929a96" stroke-width="1.4" stroke-linejoin="round" />
    <line x1="442.9" y1="150" x2="450" y2="150" stroke="#929a96" stroke-width="1.2" />
    <line x1="450" y1="150" x2="457.1" y2="150" stroke="#929a96" stroke-width="1.2" />
    <line x1="433.4" y1="190" x2="450" y2="190" stroke="#929a96" stroke-width="1.2" />
    <line x1="450" y1="190" x2="466.6" y2="190" stroke="#929a96" stroke-width="1.2" />
    <line x1="422.7" y1="235" x2="450" y2="235" stroke="#929a96" stroke-width="1.2" />
    <line x1="450" y1="235" x2="477.3" y2="235" stroke="#929a96" stroke-width="1.2" />
    <line x1="410.9" y1="285" x2="450" y2="285" stroke="#929a96" stroke-width="1.2" />
    <line x1="450" y1="285" x2="489.1" y2="285" stroke="#929a96" stroke-width="1.2" />
    <line x1="397.8" y1="340" x2="450" y2="340" stroke="#929a96" stroke-width="1.2" />
    <line x1="450" y1="340" x2="502.2" y2="340" stroke="#929a96" stroke-width="1.2" />
    <polygon points="450,92 450,394 414,394" fill="#e3e7e3" stroke="#929a96" stroke-width="1.4" stroke-linejoin="round" />
    <polygon points="450,92 450,394 486,394" fill="#e3e7e3" stroke="#929a96" stroke-width="1.4" stroke-linejoin="round" />
    <line x1="447.3" y1="115" x2="450" y2="115" stroke="#929a96" stroke-width="1.2" />
    <line x1="450" y1="115" x2="452.7" y2="115" stroke="#929a96" stroke-width="1.2" />
    <line x1="443.7" y1="145" x2="450" y2="145" stroke="#929a96" stroke-width="1.2" />
    <line x1="450" y1="145" x2="456.3" y2="145" stroke="#929a96" stroke-width="1.2" />
    <line x1="439.5" y1="180" x2="450" y2="180" stroke="#929a96" stroke-width="1.2" />
    <line x1="450" y1="180" x2="460.5" y2="180" stroke="#929a96" stroke-width="1.2" />
    <line x1="434.7" y1="220" x2="450" y2="220" stroke="#929a96" stroke-width="1.2" />
    <line x1="450" y1="220" x2="465.3" y2="220" stroke="#929a96" stroke-width="1.2" />
    <line x1="429.4" y1="265" x2="450" y2="265" stroke="#929a96" stroke-width="1.2" />
    <line x1="450" y1="265" x2="470.6" y2="265" stroke="#929a96" stroke-width="1.2" />
    <line x1="423.4" y1="315" x2="450" y2="315" stroke="#929a96" stroke-width="1.2" />
    <line x1="450" y1="315" x2="476.6" y2="315" stroke="#929a96" stroke-width="1.2" />
    <line x1="417.5" y1="365" x2="450" y2="365" stroke="#929a96" stroke-width="1.2" />
    <line x1="450" y1="365" x2="482.5" y2="365" stroke="#929a96" stroke-width="1.2" />
    <polygon points="450,72 450,394 434,394" fill="#e3e7e3" stroke="#929a96" stroke-width="1.4" stroke-linejoin="round" />
    <polygon points="450,72 450,394 466,394" fill="#e3e7e3" stroke="#929a96" stroke-width="1.4" stroke-linejoin="round" />
    <line x1="449.4" y1="85" x2="450" y2="85" stroke="#929a96" stroke-width="1.2" />
    <line x1="450" y1="85" x2="450.6" y2="85" stroke="#929a96" stroke-width="1.2" />
    <line x1="448.4" y1="105" x2="450" y2="105" stroke="#929a96" stroke-width="1.2" />
    <line x1="450" y1="105" x2="451.6" y2="105" stroke="#929a96" stroke-width="1.2" />
    <line x1="447.1" y1="130" x2="450" y2="130" stroke="#929a96" stroke-width="1.2" />
    <line x1="450" y1="130" x2="452.9" y2="130" stroke="#929a96" stroke-width="1.2" />
    <line x1="445.6" y1="160" x2="450" y2="160" stroke="#929a96" stroke-width="1.2" />
    <line x1="450" y1="160" x2="454.4" y2="160" stroke="#929a96" stroke-width="1.2" />
    <line x1="443.9" y1="195" x2="450" y2="195" stroke="#929a96" stroke-width="1.2" />
    <line x1="450" y1="195" x2="456.1" y2="195" stroke="#929a96" stroke-width="1.2" />
    <line x1="441.9" y1="235" x2="450" y2="235" stroke="#929a96" stroke-width="1.2" />
    <line x1="450" y1="235" x2="458.1" y2="235" stroke="#929a96" stroke-width="1.2" />
    <line x1="439.7" y1="280" x2="450" y2="280" stroke="#929a96" stroke-width="1.2" />
    <line x1="450" y1="280" x2="460.3" y2="280" stroke="#929a96" stroke-width="1.2" />
    <line x1="437.2" y1="330" x2="450" y2="330" stroke="#929a96" stroke-width="1.2" />
    <line x1="450" y1="330" x2="462.8" y2="330" stroke="#929a96" stroke-width="1.2" />
    <line x1="450" y1="394" x2="450" y2="64" stroke="#929a96" stroke-width="1.8" stroke-linecap="round" />
  </g>
  <!-- Middle Landscape Trees and Foliage -->
  <g id="middle-trees">
    <path d="M 808 398 L 808 340 M 808 360 L 820 348 M 808 352 L 798 342" stroke="#929a96" stroke-width="1.4" stroke-linecap="round" />
    <path d="M 785 340 C 770 325 780 295 805 295 C 815 280 835 285 845 298 C 860 305 860 325 850 338 C 840 348 815 350 785 340 Z" fill="#e3e7e3" stroke="#929a96" stroke-width="1.4" stroke-linejoin="round" />
    <path d="M 880 398 L 880 305 M 880 335 L 896 320 M 880 325 L 866 312" stroke="#929a96" stroke-width="1.4" stroke-linecap="round" />
    <path d="M 855 305 C 838 290 848 260 875 258 C 885 240 910 242 922 258 C 940 265 942 290 930 305 C 918 318 885 320 855 305 Z" fill="#e3e7e3" stroke="#929a96" stroke-width="1.4" stroke-linejoin="round" />
    <path d="M 945 398 C 940 375 960 360 980 362 C 995 350 1020 352 1032 368 C 1045 365 1065 375 1060 398" fill="#e3e7e3" stroke="#929a96" stroke-width="1.4" stroke-linejoin="round" />
    <path d="M 1120 398 L 1120 315 M 1120 345 L 1135 330 M 1120 335 L 1105 322" stroke="#929a96" stroke-width="1.4" stroke-linecap="round" />
    <path d="M 1095 315 C 1080 298 1092 270 1118 268 C 1128 250 1152 252 1162 268 C 1180 275 1182 300 1170 315 C 1158 328 1125 330 1095 315 Z" fill="#e3e7e3" stroke="#929a96" stroke-width="1.4" stroke-linejoin="round" />
    <path d="M 1195 398 C 1190 370 1210 355 1235 358 C 1250 348 1275 352 1285 370 C 1295 380 1300 390 1298 398" fill="#e3e7e3" stroke="#929a96" stroke-width="1.4" stroke-linejoin="round" />
  </g>
  <!-- Cable-Stayed Bridge -->
  <g id="cable-stayed-bridge">
    <polygon points="1464,372.4842105263158 1473,388.4842105263158 1473,398 1487,398 1487,388.4842105263158 1496,372.4842105263158" fill="#e3e7e3" stroke="#929a96" stroke-width="1.4" stroke-linejoin="round" />
    <polygon points="1824,359.6 1833,375.6 1833,398 1847,398 1847,375.6 1856,359.6" fill="#e3e7e3" stroke="#929a96" stroke-width="1.4" stroke-linejoin="round" />
    <polygon points="2154,347.7894736842105 2163,363.7894736842105 2163,398 2177,398 2177,363.7894736842105 2186,347.7894736842105" fill="#e3e7e3" stroke="#929a96" stroke-width="1.4" stroke-linejoin="round" />
    <rect x="1314" y="180" width="12" height="218" fill="#e3e7e3" stroke="#929a96" stroke-width="1.4" />
    <rect x="1641" y="152" width="12" height="246" fill="#e3e7e3" stroke="#929a96" stroke-width="1.4" />
    <rect x="1667" y="152" width="12" height="246" fill="#e3e7e3" stroke="#929a96" stroke-width="1.4" />
    <polyline points="1653,178 1660,160 1667,178" fill="none" stroke="#929a96" stroke-width="1.4" stroke-linejoin="round" />
    <rect x="1991" y="48" width="12" height="350" fill="#e3e7e3" stroke="#929a96" stroke-width="1.4" />
    <rect x="2017" y="48" width="12" height="350" fill="#e3e7e3" stroke="#929a96" stroke-width="1.4" />
    <polyline points="2003,76 2010,58 2017,76" fill="none" stroke="#929a96" stroke-width="1.4" stroke-linejoin="round" />
    <!-- Continuous Smooth Stay Cables (Ultra HD Vector) -->
    <line x1="1320" y1="190" x2="1360" y2="358.8" stroke="#a3aaa6" stroke-width="1.2" stroke-linecap="round" />
    <line x1="1320" y1="196" x2="1395" y2="357.5" stroke="#a3aaa6" stroke-width="1.2" stroke-linecap="round" />
    <line x1="1320" y1="202" x2="1430" y2="356.3" stroke="#a3aaa6" stroke-width="1.2" stroke-linecap="round" />
    <line x1="1320" y1="208" x2="1465" y2="355.0" stroke="#a3aaa6" stroke-width="1.2" stroke-linecap="round" />
    <line x1="1641" y1="170" x2="1610" y2="349.8" stroke="#a3aaa6" stroke-width="1.2" stroke-linecap="round" />
    <line x1="1641" y1="178" x2="1565" y2="351.4" stroke="#a3aaa6" stroke-width="1.2" stroke-linecap="round" />
    <line x1="1641" y1="186" x2="1520" y2="353.1" stroke="#a3aaa6" stroke-width="1.2" stroke-linecap="round" />
    <line x1="1641" y1="194" x2="1475" y2="354.7" stroke="#a3aaa6" stroke-width="1.2" stroke-linecap="round" />
    <line x1="1641" y1="202" x2="1430" y2="356.3" stroke="#a3aaa6" stroke-width="1.2" stroke-linecap="round" />
    <line x1="1679" y1="168" x2="1705" y2="346.4" stroke="#a3aaa6" stroke-width="1.2" stroke-linecap="round" />
    <line x1="1679" y1="175" x2="1745" y2="345.0" stroke="#a3aaa6" stroke-width="1.2" stroke-linecap="round" />
    <line x1="1679" y1="182" x2="1785" y2="343.6" stroke="#a3aaa6" stroke-width="1.2" stroke-linecap="round" />
    <line x1="1679" y1="189" x2="1825" y2="342.1" stroke="#a3aaa6" stroke-width="1.2" stroke-linecap="round" />
    <line x1="1679" y1="196" x2="1865" y2="340.7" stroke="#a3aaa6" stroke-width="1.2" stroke-linecap="round" />
    <line x1="1679" y1="203" x2="1905" y2="339.3" stroke="#a3aaa6" stroke-width="1.2" stroke-linecap="round" />
    <line x1="1679" y1="210" x2="1945" y2="337.8" stroke="#a3aaa6" stroke-width="1.2" stroke-linecap="round" />
    <line x1="1991" y1="72" x2="1960" y2="337.3" stroke="#a3aaa6" stroke-width="1.2" stroke-linecap="round" />
    <line x1="1991" y1="83" x2="1915" y2="338.9" stroke="#a3aaa6" stroke-width="1.2" stroke-linecap="round" />
    <line x1="1991" y1="94" x2="1870" y2="340.5" stroke="#a3aaa6" stroke-width="1.2" stroke-linecap="round" />
    <line x1="1991" y1="105" x2="1825" y2="342.1" stroke="#a3aaa6" stroke-width="1.2" stroke-linecap="round" />
    <line x1="1991" y1="116" x2="1780" y2="343.7" stroke="#a3aaa6" stroke-width="1.2" stroke-linecap="round" />
    <line x1="1991" y1="127" x2="1735" y2="345.4" stroke="#a3aaa6" stroke-width="1.2" stroke-linecap="round" />
    <line x1="1991" y1="138" x2="1690" y2="347.0" stroke="#a3aaa6" stroke-width="1.2" stroke-linecap="round" />
    <line x1="2029" y1="70" x2="2055" y2="333.9" stroke="#a3aaa6" stroke-width="1.2" stroke-linecap="round" />
    <line x1="2029" y1="81" x2="2095" y2="332.5" stroke="#a3aaa6" stroke-width="1.2" stroke-linecap="round" />
    <line x1="2029" y1="92" x2="2135" y2="331.0" stroke="#a3aaa6" stroke-width="1.2" stroke-linecap="round" />
    <line x1="2029" y1="103" x2="2175" y2="329.6" stroke="#a3aaa6" stroke-width="1.2" stroke-linecap="round" />
    <line x1="2029" y1="114" x2="2215" y2="328.2" stroke="#a3aaa6" stroke-width="1.2" stroke-linecap="round" />
    <line x1="2029" y1="125" x2="2255" y2="326.7" stroke="#a3aaa6" stroke-width="1.2" stroke-linecap="round" />
    <line x1="2029" y1="136" x2="2295" y2="325.3" stroke="#a3aaa6" stroke-width="1.2" stroke-linecap="round" />
    <polygon points="1270,362.0 2220,328.0 2220,346.0 1270,380.0" fill="#e3e7e3" stroke="#929a96" stroke-width="1.5" stroke-linejoin="round" />
    <line x1="1270" y1="367.0" x2="2220" y2="333.0" stroke="#929a96" stroke-width="0.9" stroke-opacity="0.6" />
  </g>
  <!-- Right Bank Trees and Shoreline Foliage -->
  <g id="right-bank-trees">
    <path d="M 2185 398 L 2185 295 M 2185 325 L 2200 310 M 2185 315 L 2170 302" stroke="#929a96" stroke-width="1.4" stroke-linecap="round" />
    <path d="M 2145 305 C 2130 280 2148 245 2180 248 C 2195 230 2225 232 2235 250 C 2255 258 2260 285 2245 305 C 2230 320 2175 325 2145 305 Z" fill="#e3e7e3" stroke="#929a96" stroke-width="1.4" stroke-linejoin="round" />
    <path d="M 2245 398 L 2245 275 M 2245 305 L 2260 290 M 2245 295 L 2230 282" stroke="#929a96" stroke-width="1.4" stroke-linecap="round" />
    <path d="M 2210 275 C 2195 250 2215 220 2245 222 C 2260 205 2288 208 2296 226 C 2315 235 2318 260 2305 278 C 2290 295 2240 300 2210 275 Z" fill="#e3e7e3" stroke="#929a96" stroke-width="1.4" stroke-linejoin="round" />
  </g>
  <!-- Baseline Ground & River Ripples -->
  <line x1="60" y1="398" x2="2280" y2="398" stroke="#929a96" stroke-width="1.5" stroke-linecap="round" />
  <line x1="120" y1="403" x2="2220" y2="403" stroke="#929a96" stroke-width="1.1" stroke-opacity="0.35" stroke-dasharray="24 12 36 16" />
  <line x1="200" y1="408" x2="2140" y2="408" stroke="#929a96" stroke-width="0.9" stroke-opacity="0.22" stroke-dasharray="32 16 48 20" />
</svg>
